<svg xmlns="http://www.w3.org/2000/svg" width="256" height="256"><path d="M154.969 74.11c2.914 1.277 3.727 3.092 5.281 5.828l1.578 2.714C163 85 163 85 163 87l3.688-.187c3.968.02 6.156.628 9.312 3.187 4.817 5.052 9.13 10.855 9.438 18.063-.482 4.33-1.507 7.075-3.438 10.937l2.16.156c5.346.633 9.066 1.33 12.778 5.406 4.18 5.582 7.579 11.024 6.937 18.188-.391 2.576-.903 4.303-2.14 6.621-1.066 2.755-1.066 2.755.6 5.742l2.04 3.2 2.023 3.238L208 164c-2.353 2.724-4.625 3.814-8 5l-1.469-2.809c-3.262-6.606-3.262-6.606-8.633-11.136-1.963-.114-3.932-.087-5.898-.055-6.806-2.917-10.152-9.46-13-16-.78-4.032-.825-7.356 1.035-11.062 1.188-2.025 1.188-2.025.965-4.938l-3.625-.25c-4.406-.597-6.986-1.73-10.375-4.75-4.586-6.551-8.214-12.746-7-21l1.723-2.871c1.696-3.126 1.696-3.126.039-6.27l-2.075-3.109C148 79.103 148 79.103 148 77c4.069-3.052 4.069-3.052 6.969-2.89M169 96l-.125 1.813C168 100 168 100 164.938 101.75L162 103l-1-2c.531 4.515 2.366 7.347 5 11l1-2c3.345-1.627 5.188-2 9-2-.448-4.932-2.86-8.32-6-12zm19 33v3c-2.888 2.108-4.385 3-8 3 .615 3.995 2.706 6.745 5 10l2.75-2c3.25-2 3.25-2 7.25-2-.633-3.191-1.756-5.512-3.5-8.25l-1.344-2.14L189 129zm-9 4 1 2Zm-79-59c3.375.547 5.082 1.055 8 3-1.12 3.078-2.445 5.744-4.187 8.5-2.069 3.253-2.069 3.253-1.626 6.25L103 94c1.738 5.213 1.914 9.686-.129 14.86-2.848 5.501-5.483 9.97-10.871 13.14-3.005.646-5.93.925-9 1l1 2.375c1.996 7.237 1.853 12.681-1.625 19.438C79.677 149.258 77.5 152.353 73 155a87 87 0 0 1-4.375 0c-2.36-.034-2.36-.034-4.625 1-3.247 4.055-5.644 8.383-8 13l-7-3c.555-3.782 1.595-6.122 3.75-9.25 1.964-3.319 1.964-3.319 1.875-7.05a169 169 0 0 0-1.824-4.52c-1.316-3.58-.98-6.658.199-10.18 2.618-5.46 5.557-11.031 11-14 3.308-.877 6.616-1.5 10-2l-.937-1.937c-2.428-6.999-2.74-11.436.5-18.313C76.23 93.95 78.229 90.753 83 88q2.464-.32 4.938-.562c3.828-.55 4.812-1.121 7.261-4.223C96.942 80.192 98.538 77.167 100 74M86 96a546 546 0 0 0-3.062 4.875l-1.723 2.742L80 106l1 2q2.486.572 5 1l2 1v3h2c1.405-1.68 1.405-1.68 2.688-3.812l1.386-2.145c1.262-2.168 1.262-2.168-.074-5.043a89 89 0 0 0-5-2c-2-2-2-2-3-4m9 4 1 2Zm-28 29a417 417 0 0 0-3.062 4.813l-1.723 2.707c-1.592 2.517-1.592 2.517-.215 5.48v-2l7 3v3c3.635-1.212 3.952-2.108 5.75-5.375l1.36-2.398c1.212-2.337 1.212-2.337-.11-5.227l-1 2c-3.751-1.382-6.142-2.283-8-6"/><path d="M44 137c2.874 2.596 4.244 4.214 5 8-9.23 5.59-18.51 11.096-27.812 16.563l-3.237 1.914-3.033 1.777-2.726 1.604C10 168 10 168 8 168v51l5 2a252 252 0 0 1 6.227 3.484l1.782 1.025q2.81 1.617 5.616 3.241l3.7 2.133 1.83 1.057q1.818 1.042 3.644 2.067c2.808 1.58 5.51 3.207 8.165 5.038 2.704 1.782 4.91 3.105 8.036 3.955 4.253-.91 7.424-3.027 11-5.437l2.981-1.847a417 417 0 0 0 6.052-3.822c4.496-2.87 9.102-5.536 13.717-8.207l2.398-1.433 2.211-1.305 1.921-1.146C94 219 94 219 97 219l3 7c-8.038 5.093-16.226 9.922-24.461 14.688q-2.537 1.47-5.072 2.943a405 405 0 0 1-6.466 3.652c-2.984 1.644-2.984 1.644-5.561 3.528-2.578 1.684-4.396 2.68-7.44 3.189-4.905-1.46-8.989-4.114-13.25-6.875a690 690 0 0 0-3.679-2.246 574 574 0 0 1-7.446-4.617c-5.36-3.366-10.844-6.516-16.312-9.7a1635 1635 0 0 1-5.387-3.183l-2.237-1.326C1 225 1 225 0 224a108 108 0 0 1-.32-5.586l-.127-3.623q-.197-7.158-.309-14.319a459 459 0 0 0-.28-10.861 337 337 0 0 1-.236-10.508c-.032-1.975-.129-3.949-.227-5.922.008-3.8.17-6.616 1.499-10.181 3.952-3.628 8.17-5.735 13-8a169 169 0 0 0 3.999-2.345l3.29-1.866 1.806-1.027q2.763-1.572 5.53-3.137l5.637-3.2q2.516-1.43 5.033-2.856A108 108 0 0 0 44 137m167 1c5.791 1.671 10.509 4.417 15.561 7.619 4.272 2.663 8.431 4.845 13.13 6.662 6.253 2.632 11.963 5.366 16.309 10.719 3.354 9.351 2.183 19.878 1.51 29.633-.227 3.652-.325 7.306-.436 10.963A660 660 0 0 1 256 225l-1.901 1.071c-17.229 9.714-17.229 9.714-34.349 19.617l-3.078 1.794c-5.401 3.154-5.401 3.154-10.672 6.518-3.9-.335-6.7-1.762-10.035-3.738l-2.926-1.72-3.101-1.855-3.192-1.885c-3.254-1.925-6.5-3.862-9.746-5.802l-3.078-1.836Q165.447 232.104 157 227c1.204-3.426 2.359-5.533 5-8q5.13 2.946 10.257 5.9 2.7 1.55 5.402 3.098c5.12 2.94 10.227 5.88 15.196 9.072l2.045 1.301a424 424 0 0 1 5.147 3.383c3.874 1.635 5.113.79 8.953-.754a133 133 0 0 0 5.852-3.23l3.332-1.936 3.441-2.022 3.371-1.962a324 324 0 0 0 6.678-4C235 226 235 226 238.467 224.863c3.979-1.487 5.888-2.497 8.533-5.863 2.184-8.37 1.445-17.37 1.25-25.937q-.018-3.638-.02-7.276A878 878 0 0 0 248 168l-2.657-.81c-3.22-1.146-5.89-2.502-8.827-4.237l-3.086-1.812-3.18-1.891-3.133-1.844q-3.076-1.812-6.142-3.638a729 729 0 0 0-5.934-3.489l-2.744-1.607-2.443-1.42C208 146 208 146 207 144z"/><path d="m110.313 189.688 2.263-.088c5.297-.06 8.202.934 12.424 4.4 3 3.4 3 3.4 3 6h3l.188-1.687c1.333-3.796 4.235-6.525 7.812-8.313a196 196 0 0 1 8.813-.25l2.447-.062c4.764-.032 7.867.235 11.74 3.312 4 4.432 4 4.432 4 7h16v8h-16l-2 6c-6.863 5.52-13.454 5.616-22 5-5.15-1.162-7.996-3.709-11-8a98 98 0 0 0-3-3l-.187 1.688c-1.408 4.006-4.304 6.55-8.051 8.44-3.336 1.053-6.204 1.173-9.7 1.185l-3.59.05c-5.126-.536-8.356-2.159-11.847-5.925C93 211 93 211 93 209H77v-9h16l2-5c4.49-5.213 8.75-5.229 15.313-5.312M103 200h3v9l-2 1h13l1-2h-3v-8l3-1c-2.602-1.3-4.597-1.168-7.5-1.187l-2.969-.043c-2.7-.027-2.7-.027-4.531 2.23m38 0h3v8l-3 1c1.111 1.339 1.111 1.339 3.941 1.098l3.621-.036 3.63-.027L155 210l1-2h-3v-8l3-1c-2.602-1.3-4.597-1.168-7.5-1.187l-2.969-.043c-2.7-.027-2.7-.027-4.531 2.23M129.868 2.715c3.061 1.256 5.814 2.668 8.667 4.34l3.21 1.867 3.318 1.953C156.669 17.655 168.327 24.33 180 31v53h-8l.13-1.69c3.233-25.416 3.233-25.416-3.357-48.749-5.707-4.975-12.39-7.289-19.552-9.462-4.81-1.641-8.772-4.288-12.971-7.099a49.3 49.3 0 0 0-7.25-4c-3.756 1.144-7.083 3.065-10.5 4.977l-3.172 1.773L112 21.625l-3.393 1.903c-6.929 3.904-13.759 7.911-20.447 12.214C86 37 86 37 84 37v47h-8c-.228-7.295-.386-14.59-.494-21.887a564 564 0 0 0-.185-7.444c-.11-3.57-.16-7.137-.2-10.708l-.14-3.353c-.006-7.53-.006-7.53 2.88-10.566C80.175 28.472 82.483 27.211 85 26l3.047-1.808 2.703-1.489L93.82 21 97 19.25c9.196-5.06 9.196-5.06 18.2-10.453l2.325-1.443a196 196 0 0 0 4.172-2.685c3.058-1.904 4.593-2.846 8.171-1.954"/><path d="M15 168c5.247 1.489 9.503 3.886 14.125 6.688l2.255 1.339a503 503 0 0 1 10.222 6.223l3.148 1.938 2.734 1.73c3.152 1.356 4.24 1.022 7.516.082a122 122 0 0 0 6.438-3.527l1.825-1.058c1.917-1.11 3.827-2.231 5.737-3.352q2.865-1.676 5.737-3.342 2.604-1.516 5.204-3.041A58 58 0 0 1 88 168c4 5.75 4 5.75 4 8l-2.136 1.19q-4.87 2.715-9.739 5.435l-3.36 1.871a364 364 0 0 0-6.6 3.78C67 190 67 190 63.988 191.048c-3.27 1.286-4.844 2.138-6.988 4.952-1.81 6.907-1.26 14.301-1.125 21.375q.004 2.994-.008 5.988c-.008 4.88.046 9.757.133 14.637h-9l.29-3.633c2.411-21.652 2.411-21.652-3.532-41.634-5.529-4.767-11.84-7.309-18.699-9.614-4.655-1.703-9.217-3.953-13.059-7.119 0-3.576 1.088-5.053 3-8m153 0c6.25 2.954 12.254 6.057 18.035 9.86l3.014 1.937a240 240 0 0 1 6.039 4.047c2.997 1.883 5.481 3.274 8.912 4.156 4.304-1.077 7.431-3.434 11-6a447 447 0 0 1 6.219-3.684c3.18-1.897 6.357-3.8 9.523-5.72l3.102-1.842 2.787-1.678C239 168 239 168 242 169c1.688 3.563 1.688 3.563 3 7-28 16-28 16-29.95 16.795-2.237.903-2.237.903-5.05 3.205-1.03 3.183-.955 6.256-.902 9.578l-.038 2.808a546 546 0 0 0 .002 8.864q-.02 3.007-.048 6.016c-.041 4.912-.039 9.822-.014 14.734h-9v-42l-5-2a276 276 0 0 1-6.508-3.625l-1.84-1.053q-1.915-1.098-3.827-2.199-2.925-1.682-5.852-3.357c-9.48-5.437-9.48-5.437-12.973-7.766 1.125-2.972 2.223-5.334 4-8M91 37c4.27.594 7.295 2.103 11 4.273l3.438 2L109 45.375l3.563 2.078c9.213 5.382 9.213 5.382 11.937 7.393 2.508 1.459 2.508 1.459 5.459.539a91 91 0 0 0 8.701-4.537l3.154-1.854 3.249-1.931c1.075-.634 2.15-1.268 3.26-1.92 5.725-3.37 5.725-3.37 11.386-6.844C162 37 162 37 164.187 36.938 166 38 166 38 167.25 41.062L168 44c-4.943 3.724-9.681 6.367-15.531 8.426C141.266 56.693 141.266 56.693 133 65c-4.307 12.615-2.186 27.968-1 41h-8c.095-1.169.19-2.337.29-3.542 2.373-21.162 2.373-21.162-3.516-40.661-5.522-4.719-11.819-7.24-18.632-9.568C96.984 50.211 92.535 47.142 88 44c1.875-4.75 1.875-4.75 3-7"/><path d="M110 103c5.163.886 9.443 4.011 13.906 6.602 2.837 1.555 2.837 1.555 5.125 1.335 3.89-1.852 7.458-4.239 11.094-6.539C143 103 143 103 145.297 103.172c2.366 1.15 2.84 2.385 3.703 4.828v3c-2.8 2.298-6.046 3.958-9.187 5.75l-2.62 1.574-2.548 1.473-2.333 1.354c-2.917 1.071-4.37.773-7.312-.151-2.22-1.031-2.22-1.031-4.426-2.285l-2.412-1.358-2.475-1.42-2.533-1.431A1206 1206 0 0 1 107 111c.68-2.92 1.581-5.351 3-8m-28 49c7.812 1.096 17.072 4.624 22 11 2.131 7.42 1.042 15.455 0 23h-9l.273-3.656c.606-8.5.606-8.5-2.678-15.933-2.954-2.172-6.097-3.601-9.47-5L80 160l-1-3c1.438-2.687 1.438-2.687 3-5m93 1c1.721 2.582 2 3.85 2 7q-3.433 2.007-6.875 4l-1.973 1.156C163.227 168 163.227 168 161 168v17h-9c-2.275-15.077-2.275-15.077 0-22 4.612-5.476 15.645-12.924 23-10M12 208h9v4l1.953.691c4.124 1.772 7.926 3.984 11.797 6.246l2.363 1.342 2.246 1.31 2.046 1.184C43 224 43 224 44 227c-1.437 2.688-1.437 2.688-3 5-6.475-.974-11.673-4.336-17.312-7.5l-3.4-1.781c-7.92-4.468-7.92-4.468-9.016-8.196-.002-2.492-.002-2.492.728-6.523M131.262 17.246a102 102 0 0 1 3.425 2.192q1.837 1.14 3.676 2.277l1.839 1.167c2.662 1.655 5.412 3.135 8.173 4.618l2.71 1.469L153 30c-.547 3.375-1.055 5.082-3 8-2.909-.614-5.16-1.52-7.715-3.031l-2.08-1.207q-2.138-1.259-4.273-2.524C132.225 29.092 129.257 27.741 125 27c-2.21-2.895-3-4.332-3-8 5.059-3.36 5.059-3.36 9.262-1.754M235 209h9c.928 4.927.928 4.927 0 8-3.197 2.98-6.908 4.894-10.75 6.938l-3.078 1.744c-8.052 4.497-8.052 4.497-12.172 5.318-3-4.625-3-4.625-3-8 1.728-1.303 1.728-1.303 4.121-2.594l2.584-1.433 2.732-1.473q2.662-1.44 5.31-2.906l2.395-1.291c2.17-1.247 2.17-1.247 2.858-4.303M12 195h9v9h-9zm223-11h9v9h-9zM107.188 29.125C109 30 109 30 111 33v4l-7 3c-4-5.75-4-5.75-4-8 4.07-3.053 4.07-3.053 7.188-2.875M119 22c3.053 4.07 3.053 4.07 2.875 7.188C121 31 121 31 118 33h-4c-1.812-2.312-1.812-2.312-3-5 1.271-3.814 3.81-6 8-6m116 175h9v8h-9zM12 183h9v8h-9z"/></svg>